# xmcd
#
# Track frame offsets:
#	150
#	22905
#	40277
#	59144
#	75301
#	96529
#	120604
#	138099
#	148465
#	159219
#	176981
#	185316
#	202688
#	223436
#	236768
#	248506
#	264294
#	276144
#	286963
#	302521
#
# Disc length: 4247 seconds
#
# Revision: 0
# Processed by: cddbd v1.5.2PL0 Copyright (c) Steve Scherf et al.
# Submitted via: EasyCDDAExtractor 16.0.6.1
#
DISCID=21109514
DTITLE=Συλλογικός δίσκος - Τα μεγάλα τραγούδια-Μ. Θεοδωράκης 04
DYEAR=2010
DGENRE=Λαϊκή
TTITLE0=Φαραντούρη Μαρία - Άσμα ασμάτων [Ιάκωβος Καμπανέλλης]
TTITLE1=Μητσιάς Μανώλης - Όμορφη πόλη [Γιάννης Θεοδωράκης]
TTITLE2=Γλυκερία - Μέρα Μαγιού μού μίσεψες [Γιάννης Ρίτσος]
TTITLE3=Πουλόπουλος Γιάννης - Στρώσε το στρώμα σου για δυό [Ιάκωβος Καμπανέλλη
TTITLE3=ς]
TTITLE4=Πανδής Πέτρος - Μέσ' στην κλειστή μοναξιά μου [Μανόλης Αναγνωστάκης]
TTITLE5=Αρλέτα - Η παντέρμη [Federico Garcia Lorca, απόδ. Οδ. Ελύτης]
TTITLE6=Δημητριάδη Μαρία - Στο μπαρ [Μάνος Ελευθερίου]
TTITLE7=Σταμπόγλης Χριστόφορος - Βάρκα στο γιαλό [Μίκης Θεοδωράκης]
TTITLE8=Ζώη Μαρία - Το παλληκάρι έχει καϋμό [Μάνος Ελευθερίου]
TTITLE9=Ζορμπαλά Μαργαρίτα - Εκείνος που μάς χάθηκε [Δημήτρης Χριστοδούλου]
TTITLE10=Μάνου Αφροδίτη - Μιά ξανθιά απ' το Βισμπάντεν [Φώντας Λάδης]
TTITLE11=Φαραντούρη Μαρία - Στην Καλυψώ [Κώστας Καρτελιάς]
TTITLE12=Μητσιάς Μανώλης - Το γεράκι [Λευτέρης Παπαδόπουλος]
TTITLE13=Ζορμπαλά Μαργαρίτα - Τα σύνορα εδώ [Κώστας Τριπολίτης]
TTITLE14=Θεοδωράκης Μίκης - Αυτοί που θά 'ρθουν μιά βραδιά [Μάνος Ελευθερίου]
TTITLE15=Πουλόπουλος Γιάννης - Τι να την κάνω τη χαρά [Νότης Περγιάλης]
TTITLE16=Ζωγράφος Γιώργος - Ο δραπέτης [Ιάκωβος Καμπανέλλης]
TTITLE17=Φαραντούρη Μαρία-Θεοδωράκης Μίκης - Οι μοιραίοι [Κώστας Βάρναλης]
TTITLE18=Μπιθικώτσης Γρηγόρης-χορωδία - Ανοίγω το στόμα μου [Οδυσσέας Ελύτης]
TTITLE19=Μητσιάς Μανώλης - Ερωταποστολή [Αγαθή Δημητρούκα]
EXTD=
EXTT0=
EXTT1=
EXTT2=
EXTT3=
EXTT4=
EXTT5=
EXTT6=
EXTT7=
EXTT8=
EXTT9=
EXTT10=
EXTT11=
EXTT12=
EXTT13=
EXTT14=
EXTT15=
EXTT16=
EXTT17=
EXTT18=
EXTT19=
PLAYORDER=
